<svg xmlns="http://www.w3.org/2000/svg" width="36" height="36" fill="none" xmlns:v="https://vecta.io/nano"><path d="M8.031 26.312l-4.906-3.86a.6.6 0 0 1-.195-.79c.786-1.139 2.301-1.53 3.79-.973l4.438 2.517-3.126 3.106zm1.647 1.647l3.868 4.917a.6.6 0 0 0 .79.195l.293-.202a2.66 2.66 0 0 0 .823-3.205l-2.658-4.82-3.116 3.116z" fill="#f0563e"/><path d="M8.317 21.596l-2.773 2.758 2.49 1.96 3.126-3.108-2.843-1.611z" fill="#c42110"/><path d="M9.36 11.197a1.7 1.7 0 0 1-.114-2.274l2.365-2.634c.809-.809.88-.713 1.745-1.243a.32.32 0 0 1 .397.048l1.711 1.711c.051.051.084.118.093.19a.32.32 0 0 1-.045.207c-.53.865-.434.936-1.243 1.745a39.63 39.63 0 0 1-2.634 2.365 1.7 1.7 0 0 1-2.275-.115zm15.443 15.441a1.7 1.7 0 0 1-.115-2.274l2.366-2.634c.809-.809.88-.713 1.745-1.243a.32.32 0 0 1 .397.048l1.71 1.71a.32.32 0 0 1 .048.397c-.53.865-.434.936-1.243 1.745-.592.592-1.668 1.578-2.634 2.366a1.7 1.7 0 0 1-2.275-.116z" fill="#c3d3db"/><path d="M17.086 17.03l6.053-6.053L4.387 5.084a1.06 1.06 0 0 0-1.025.251L1.777 6.919a1.24 1.24 0 0 0-.244 1.062 1.24 1.24 0 0 0 .69.843l14.863 8.205z" fill="#f0563e"/><path d="M18.902 9.644L13.5 15.047l3.586 1.981 6.054-6.051-4.237-1.331z" fill="#c42110"/><path d="M18.971 18.915l6.054-6.053 5.892 18.752a1.06 1.06 0 0 1-.251 1.026l-1.584 1.583c-.147.119-.319.203-.503.245a1.24 1.24 0 0 1-1.061-.248 1.24 1.24 0 0 1-.342-.443l-8.205-14.862z" fill="#f0563e"/><path d="M30.397 10.317l-10.17 10.17c-1.701 1.702-3.511 3.29-5.42 4.755l-4.839 3.712c-1.12.861-2.453.963-3.168.247s-.612-2.048.247-3.168l3.712-4.838c1.465-1.908 3.054-3.719 4.755-5.42l10.17-10.17a16.89 16.89 0 0 1 4.672-3.344c1.455-.685 2.999-1.113 3.749-.364s.321 2.295-.364 3.747c-.839 1.738-1.97 3.319-3.344 4.674z" fill="#e0f3fc"/><path d="M34.105 1.896a1.49 1.49 0 0 0-1.049-.394c-.047.953-.306 1.884-.757 2.725A16.89 16.89 0 0 1 28.955 8.9l-10.17 10.169a55.12 55.12 0 0 1-5.42 4.755l-4.839 3.712a3.09 3.09 0 0 1-2.181.706 1.64 1.64 0 0 0 .455.956c.717.717 2.048.612 3.168-.247l4.839-3.712c1.909-1.464 3.719-3.052 5.42-4.753l10.17-10.17a16.89 16.89 0 0 0 3.344-4.674c.685-1.453 1.115-2.997.364-3.747z" fill="#c3d3db"/><path d="M31.242 8.369l-.347.347c-.323.323-3.93-3.285-3.608-3.608l.347-.347a.73.73 0 0 1 .802-.172c1.323.596 2.382 1.655 2.978 2.978a.73.73 0 0 1-.172.802z" fill="#51c4f5"/><path d="M7.898 28.586c-.096 0-.189-.029-.268-.082s-.141-.129-.178-.217-.046-.186-.028-.279.065-.18.132-.247l4.223-4.223c.091-.091.214-.142.342-.142s.251.051.342.142.142.214.142.342-.051.251-.142.342L8.24 28.444a.48.48 0 0 1-.342.142z" fill="#c42110"/></svg>