<svg xmlns="http://www.w3.org/2000/svg" width="36" height="36" fill="none" xmlns:v="https://vecta.io/nano"><style><![CDATA[.B{fill:#344a5e}.C{fill:#ffd15c}.D{fill:#e2311e}]]></style><g class="B"><path d="M26.668 33.309c1.906 0 3.45-1.52 3.45-3.396s-1.545-3.396-3.45-3.396-3.45 1.52-3.45 3.396 1.545 3.396 3.45 3.396z"/><path d="M33.853 33.065c0 .492-.093.979-.276 1.435h-7.417c-.362-.91-.367-1.922-.013-2.835.297-.744.811-1.382 1.474-1.831a4.01 4.01 0 0 1 4.495 0 4.01 4.01 0 0 1 1.474 1.831c.174.446.262.921.262 1.4z"/></g><path d="M27.937 2.564H8.065V34.5h19.872V2.564z" fill="#f3705a"/><path d="M28.45 1.93v1.598c-.001.115-.047.225-.129.306s-.193.126-.308.125H7.988c-.115.001-.226-.044-.308-.125s-.128-.191-.129-.306V1.93c.001-.115.048-.225.129-.306s.193-.126.308-.125h20.025c.115-.001.226.044.308.125s.128.191.129.306z" class="D"/><path d="M13.365 9.966h-2.738a.31.31 0 0 1-.22-.089.31.31 0 0 1-.093-.219V5.92a.31.31 0 0 1 .093-.219.31.31 0 0 1 .22-.089h2.738a.31.31 0 0 1 .22.089.31.31 0 0 1 .093.219v3.737a.31.31 0 0 1-.092.219.31.31 0 0 1-.221.089z" class="B"/><path d="M14.046 5.6c-.014-.029-.03-.057-.047-.083s-.032-.047-.051-.069l-.034-.038-.028-.027-.041-.037c-.014-.012-.023-.018-.035-.026l-.039-.027a.81.81 0 0 0-.081-.045.7.7 0 0 0-.09-.034c-.015-.005-.03-.009-.045-.013s-.027-.007-.04-.009-.028-.006-.041-.008-.023-.003-.034-.004-.021 0-.032-.003-.03 0-.045 0h-2.738a.75.75 0 0 0-.755.744v3.74.042.032c.001.012.002.024.005.035.004.027.009.053.016.079l.014.045c.01.029.021.058.035.085s.028.054.045.08a.53.53 0 0 0 .026.038.41.41 0 0 0 .029.036l.031.034.031.031.036.032.032.026.004.003.038.025a.75.75 0 0 0 .407.118h2.738a.75.75 0 0 0 .756-.743V5.92c.002-.11-.022-.22-.068-.32zm-.812 3.93h-2.479V6.048h2.479V9.53z" class="C"/><path d="M19.469 9.966h-2.738a.31.31 0 0 1-.22-.089.31.31 0 0 1-.093-.219V5.92a.31.31 0 0 1 .093-.219.31.31 0 0 1 .22-.089h2.738a.31.31 0 0 1 .22.089.31.31 0 0 1 .093.219v3.737a.31.31 0 0 1-.093.219.31.31 0 0 1-.22.089z" class="B"/><path d="M20.152 5.602a.84.84 0 0 0-.048-.083.65.65 0 0 0-.05-.069l-.034-.038-.029-.027c-.013-.013-.026-.025-.041-.037l-.036-.03-.039-.027c-.026-.017-.053-.032-.081-.045s-.057-.025-.087-.034l-.045-.013c-.013-.004-.027-.007-.04-.009a.4.4 0 0 0-.041-.008c-.011-.002-.023-.003-.034-.004s-.021 0-.032-.003-.03 0-.045 0h-2.739a.75.75 0 0 0-.756.744v3.74.042c0 .013 0 .021.003.032s.003.024.005.035c.004.027.009.053.017.079a.58.58 0 0 0 .013.045.8.8 0 0 0 .035.085c.013.028.028.054.045.08l.026.038a.45.45 0 0 0 .029.036l.031.034.031.031.037.032.032.026.042.028a.75.75 0 0 0 .408.118h2.738a.75.75 0 0 0 .533-.214.75.75 0 0 0 .226-.528V5.92a.75.75 0 0 0-.072-.318zm-.813 3.928H16.86V6.048h2.479V9.53z" class="C"/><path d="M25.573 9.966h-2.737a.31.31 0 0 1-.22-.089.31.31 0 0 1-.068-.1c-.016-.038-.024-.078-.025-.119V5.92c0-.041.009-.081.025-.119a.31.31 0 0 1 .169-.167.31.31 0 0 1 .119-.023h2.738a.31.31 0 0 1 .22.089.31.31 0 0 1 .068.1c.016.038.024.078.025.119v3.737a.31.31 0 0 1-.093.22.31.31 0 0 1-.221.089z" class="B"/><path d="M26.255 5.6c-.014-.029-.03-.056-.047-.083s-.032-.047-.051-.069l-.034-.038-.028-.027-.041-.037c-.014-.012-.023-.018-.035-.026l-.039-.027a.9.9 0 0 0-.081-.045c-.029-.013-.059-.025-.09-.034l-.045-.013c-.013-.004-.027-.007-.041-.009s-.027-.006-.041-.008a.27.27 0 0 0-.034-.004c-.01 0-.021 0-.032-.003s-.03 0-.045 0h-2.74a.75.75 0 0 0-.755.744v3.74.042c0 .013 0 .021.003.032s.003.024.005.035c.003.027.008.053.016.079l.014.045c.01.029.021.058.035.085a.76.76 0 0 0 .045.08.4.4 0 0 0 .026.038.41.41 0 0 0 .029.036l.031.034.031.031.036.032.032.026.004.003.038.025a.75.75 0 0 0 .407.118h2.738a.75.75 0 0 0 .756-.743V5.92c.001-.11-.023-.22-.069-.32zm-.812 3.93h-2.479V6.048h2.479V9.53z" class="C"/><path d="M28.45 12.123v1.598c-.001.115-.047.225-.129.306s-.193.126-.308.125H7.988c-.115.001-.226-.044-.308-.125s-.128-.191-.129-.306v-1.598c.001-.115.048-.225.129-.306s.193-.126.308-.125h20.025c.115-.001.226.044.308.125s.128.191.129.306z" class="D"/><path d="M13.365 20.158h-2.738c-.041 0-.081-.007-.119-.023s-.072-.038-.101-.066a.31.31 0 0 1-.093-.219v-3.736a.31.31 0 0 1 .093-.219.31.31 0 0 1 .22-.089h2.738a.31.31 0 0 1 .22.089.31.31 0 0 1 .093.219v3.738a.31.31 0 0 1-.313.306z" class="B"/><path d="M14.046 15.793c-.014-.029-.03-.056-.047-.083s-.032-.047-.051-.069l-.034-.037-.028-.027-.041-.037c-.014-.012-.023-.018-.035-.026l-.039-.027c-.026-.016-.053-.031-.081-.045s-.059-.025-.09-.034c-.015-.005-.03-.009-.045-.013s-.027-.007-.04-.009-.028-.006-.041-.008-.023-.003-.034-.004-.021 0-.032-.003-.03 0-.045 0h-2.738a.75.75 0 0 0-.755.743v3.74.042.032c.001.012.002.024.005.035a.59.59 0 0 0 .016.079l.014.045c.01.029.021.058.035.086s.028.054.045.08l.026.038c.009.012.018.024.029.036l.031.034.031.031.036.032.032.026.004.003.038.025a.75.75 0 0 0 .407.118h2.738a.75.75 0 0 0 .756-.743v-3.736c.002-.111-.021-.221-.068-.321zm-.812 3.93h-2.479V16.24h2.479v3.482z" class="C"/><path d="M19.469 20.158h-2.738c-.041 0-.081-.007-.119-.023s-.072-.038-.101-.066a.31.31 0 0 1-.093-.219v-3.736a.31.31 0 0 1 .093-.219.31.31 0 0 1 .22-.089h2.738a.31.31 0 0 1 .119.023c.038.015.072.038.101.066a.31.31 0 0 1 .093.219v3.738a.31.31 0 0 1-.313.306z" class="B"/><path d="M20.152 15.795a.85.85 0 0 0-.048-.083.63.63 0 0 0-.051-.069l-.034-.038-.029-.027c-.013-.013-.026-.025-.041-.037l-.034-.026-.039-.027c-.026-.017-.053-.031-.081-.045a.68.68 0 0 0-.087-.035l-.045-.013c-.013-.004-.027-.007-.04-.009a.4.4 0 0 0-.041-.008.33.33 0 0 0-.035-.004c-.01 0-.021 0-.032-.003s-.03 0-.045 0h-2.741a.75.75 0 0 0-.756.742v3.74.042c0 .013 0 .021.003.032s.003.024.004.035a.58.58 0 0 0 .017.079c.004.015.008.029.013.045.01.029.022.058.035.085s.028.054.045.08l.026.038a.45.45 0 0 0 .029.036l.031.034.031.031.037.032.032.026.043.028a.75.75 0 0 0 .408.118h2.738a.75.75 0 0 0 .755-.743v-3.736a.75.75 0 0 0-.068-.32zm-.813 3.928H16.86v-3.482h2.479v3.482h0z" class="C"/><path d="M25.573 20.158h-2.737c-.041 0-.081-.007-.119-.023s-.072-.038-.101-.066a.31.31 0 0 1-.068-.1c-.016-.038-.024-.078-.025-.119v-3.736c0-.041.009-.081.025-.119a.31.31 0 0 1 .169-.166.31.31 0 0 1 .119-.023h2.738a.31.31 0 0 1 .22.089.31.31 0 0 1 .068.1c.016.038.024.078.025.119v3.738a.31.31 0 0 1-.314.306z" class="B"/><path d="M26.255 15.793c-.014-.029-.03-.056-.047-.083s-.032-.047-.05-.069l-.034-.037-.028-.027-.041-.037c-.014-.012-.023-.018-.035-.026l-.039-.027-.081-.045c-.029-.013-.059-.025-.089-.034-.015-.005-.03-.009-.045-.013a.27.27 0 0 0-.041-.009c-.013-.003-.027-.006-.041-.008a.27.27 0 0 0-.034-.004c-.01 0-.021 0-.032-.003s-.03 0-.045 0h-2.74a.75.75 0 0 0-.754.743v3.74.042c0 .013 0 .021.003.032a.26.26 0 0 0 .005.035c.003.027.009.053.016.079l.014.045a.8.8 0 0 0 .034.086.82.82 0 0 0 .045.08.43.43 0 0 0 .026.038c.009.012.018.024.029.036l.031.034.031.031.036.032.032.026.005.003c.012.009.025.017.038.025a.75.75 0 0 0 .407.118h2.738a.75.75 0 0 0 .756-.743v-3.736c.001-.111-.023-.221-.07-.321zm-.812 3.93h-2.479V16.24h2.479v3.482h0z" class="C"/><path d="M28.45 22.314v1.599c-.001.115-.048.224-.13.305s-.192.125-.307.124H7.988c-.115.001-.226-.044-.308-.125s-.128-.191-.129-.306v-1.598c.001-.115.048-.225.129-.306s.193-.126.308-.125h20.025c.115-.001.226.044.308.125s.128.191.129.306z" class="D"/><path d="M13.365 30.35h-2.738a.31.31 0 0 1-.22-.089c-.029-.029-.052-.063-.068-.1a.31.31 0 0 1-.025-.119v-3.738a.31.31 0 0 1 .025-.119c.016-.037.039-.071.068-.1a.31.31 0 0 1 .22-.089h2.738a.31.31 0 0 1 .22.089c.029.029.052.063.068.1a.31.31 0 0 1 .025.119v3.738a.31.31 0 0 1-.025.119c-.016.038-.039.072-.068.1a.31.31 0 0 1-.22.089z" class="B"/><path d="M14.046 25.985c-.014-.029-.03-.056-.047-.083s-.032-.047-.051-.069l-.034-.037-.028-.027-.041-.037c-.014-.012-.023-.018-.035-.026l-.039-.027c-.026-.016-.053-.031-.081-.045s-.059-.025-.09-.034a.44.44 0 0 0-.045-.013c-.013-.004-.027-.007-.04-.009s-.028-.006-.041-.008-.023-.003-.034-.003-.021 0-.032-.003-.03 0-.045 0h-2.738a.75.75 0 0 0-.755.744v3.74.042.032c.001.012.002.024.005.035.004.027.009.053.016.079l.014.045a.68.68 0 0 0 .035.085c.013.027.028.054.045.08a.55.55 0 0 0 .026.038.45.45 0 0 0 .029.036l.031.034.031.031.036.032.032.026.004.003.038.025a.75.75 0 0 0 .407.118h2.738a.75.75 0 0 0 .756-.743v-3.738c.002-.11-.022-.22-.068-.32zm-.812 3.93h-2.479v-3.482h2.479v3.482z" class="C"/><path d="M25.573 30.35h-2.737a.31.31 0 0 1-.22-.089.31.31 0 0 1-.068-.1c-.016-.037-.024-.078-.025-.119v-3.738c0-.041.009-.081.025-.119a.31.31 0 0 1 .169-.166.31.31 0 0 1 .119-.023h2.738a.31.31 0 0 1 .22.089.31.31 0 0 1 .068.1c.016.038.024.078.025.119v3.738a.31.31 0 0 1-.093.219.31.31 0 0 1-.221.088z" class="B"/><path d="M26.255 25.985c-.014-.029-.03-.056-.047-.083s-.032-.047-.051-.069l-.034-.038-.028-.027-.041-.037c-.014-.012-.023-.018-.035-.026l-.039-.027-.081-.045c-.029-.013-.059-.025-.09-.034-.015-.005-.03-.009-.045-.013a.27.27 0 0 0-.041-.009c-.013-.003-.027-.006-.041-.008a.26.26 0 0 0-.033-.002c-.01 0-.021 0-.032-.003s-.03 0-.045 0h-2.741a.75.75 0 0 0-.755.744v3.74.042c0 .013 0 .021.003.032s.003.024.005.035c.003.027.008.053.016.079l.014.045a.82.82 0 0 0 .035.085c.013.027.028.054.045.08.008.013.017.026.026.038s.018.024.029.036l.031.034.031.031.036.032.032.026.004.003.038.025c.122.078.263.119.407.118h2.738a.75.75 0 0 0 .756-.743v-3.74c.001-.11-.023-.22-.069-.32zm-.812 3.93h-2.479v-3.482h2.479v3.482z" class="C"/><path d="M15.725 34.499v-7.413c.001-.124.026-.247.074-.362a.95.95 0 0 1 .207-.306c.088-.087.193-.156.308-.203s.238-.07.362-.069h2.646c.124-.001.247.023.363.069s.22.116.308.203.159.191.207.306.074.237.075.362v7.413h-4.551z" fill="#f05540"/><path d="M20.84 34.5h-1.126v-7.093a.71.71 0 0 0-.716-.703h-1.996a.71.71 0 0 0-.504.203.71.71 0 0 0-.156.229c-.036.086-.056.178-.056.271V34.5H15.16v-7.827a1.09 1.09 0 0 1 .325-.766c.205-.202.483-.314.771-.312h3.488c.288-.002.566.11.771.312a1.09 1.09 0 0 1 .325.766V34.5h0z" fill="#ffe7a5"/><path d="M17.193 31.062a.51.51 0 0 0 .514-.506.51.51 0 0 0-.514-.506.51.51 0 0 0-.514.506.51.51 0 0 0 .514.506z" fill="#fff"/><g class="B"><path d="M8.928 33.278a3.28 3.28 0 0 1-.234 1.221H2.382a3.3 3.3 0 0 1-.012-2.415 3.41 3.41 0 0 1 3.167-2.145 3.41 3.41 0 0 1 3.167 2.145c.148.381.224.785.223 1.194z"/><path d="M11.115 33.613a2.38 2.38 0 0 1-.17.886H6.366c-.224-.562-.227-1.187-.008-1.751.184-.459.501-.853.91-1.13s.893-.425 1.387-.425.978.148 1.387.425.727.671.91 1.13c.107.276.162.569.162.864z"/></g></svg>