<svg xmlns="http://www.w3.org/2000/svg" xmlns:xlink="http://www.w3.org/1999/xlink" width="36" height="36" fill="none" xmlns:v="https://vecta.io/nano"><path d="M26.092 31.207H9.777v1.653h16.314v-1.653z" fill="#344a5e"/><path d="M10.271 34.5H6.647l6.075-11.485h3.624L10.271 34.5zm15.459 0h3.625L23.28 23.016h-3.625L25.73 34.5z" fill="#415a6b"/><path d="M27.88 2.532c-6.515-1.376-13.245-1.376-19.76 0a3.69 3.69 0 0 0-2.737 3.433v20.921a2.78 2.78 0 0 0 2.771 2.771h19.69a2.78 2.78 0 0 0 2.771-2.771V5.966c-.028-.79-.308-1.55-.801-2.169s-1.171-1.062-1.935-1.265z" fill="#f3705a"/><path d="M29.225 6.359v-.392a2.3 2.3 0 0 0-1.633-2.075c-6.324-1.335-12.857-1.335-19.181 0-.453.135-.854.407-1.147.778s-.464.824-.49 1.297v.393l22.451-.001z" fill="#f05540"/><g fill="#344a5e"><use xlink:href="#B"/><use xlink:href="#B" x="-15.513"/></g><path d="M30.617 19.512h-7.998a.69.69 0 0 0-.266.052c-.084.035-.161.086-.225.151l-4.126 4.126-4.126-4.126a.7.7 0 0 0-.493-.203h-8v1.389h7.71l4.415 4.414c.131.13.307.203.492.203s.361-.073.492-.203l4.415-4.414h7.71l.001-1.389z" fill="#ffd15c"/><path d="M17.76 4.67c0 .219-.065.433-.187.615a1.11 1.11 0 0 1-.497.408c-.202.084-.425.106-.64.063a1.11 1.11 0 0 1-.87-.87c-.043-.215-.021-.438.063-.64s.226-.375.408-.497a1.11 1.11 0 0 1 .615-.187 1.12 1.12 0 0 1 .424.084 1.11 1.11 0 0 1 .359.24c.103.103.184.225.24.359a1.1 1.1 0 0 1 .084.424zm2.694 0a1.11 1.11 0 0 1-1.891.783 1.11 1.11 0 0 1 .168-1.704c.182-.122.396-.187.615-.187.145 0 .289.029.424.084a1.08 1.08 0 0 1 .359.24 1.13 1.13 0 0 1 .24.359 1.11 1.11 0 0 1 .084.424zm-4.136 3.932H8.64a1.09 1.09 0 0 0-1.09 1.089v6.588a1.09 1.09 0 0 0 1.09 1.09h7.678a1.09 1.09 0 0 0 1.09-1.09V9.691a1.09 1.09 0 0 0-1.09-1.089zm11.041 0h-7.676a1.09 1.09 0 0 0-1.09 1.09v6.588a1.09 1.09 0 0 0 1.09 1.09h7.676a1.09 1.09 0 0 0 1.09-1.09V9.691a1.09 1.09 0 0 0-1.09-1.09z" fill="#f3f3f3"/><defs ><path id="B" d="M27.476 24.827a1.72 1.72 0 0 1-1.061 1.588 1.72 1.72 0 0 1-1.873-.373 1.72 1.72 0 0 1-.373-1.873 1.72 1.72 0 0 1 1.588-1.061 1.72 1.72 0 0 1 1.719 1.719z"/></defs></svg>